<svg width="93" height="20" viewBox="0 0 93 20" fill="none" xmlns="http://www.w3.org/2000/svg">
<path d="M28.3223 4.46875V13H27.6016V4.46875H28.3223ZM31.1758 8.01367V13H30.4785V6.66016H31.1465L31.1758 8.01367ZM31.0176 9.4375L30.707 9.26172C30.7305 8.88672 30.8066 8.53516 30.9355 8.20703C31.0645 7.87891 31.2383 7.58984 31.457 7.33984C31.6797 7.08984 31.9395 6.89453 32.2363 6.75391C32.5371 6.61328 32.8691 6.54297 33.2324 6.54297C33.5488 6.54297 33.832 6.58594 34.082 6.67188C34.332 6.75781 34.5449 6.89453 34.7207 7.08203C34.8965 7.26953 35.0293 7.50977 35.1191 7.80273C35.2129 8.0957 35.2598 8.45312 35.2598 8.875V13H34.5566V8.86914C34.5566 8.43164 34.4961 8.08984 34.375 7.84375C34.2539 7.59375 34.082 7.41602 33.8594 7.31055C33.6367 7.20508 33.373 7.15234 33.0684 7.15234C32.7324 7.15234 32.4375 7.22656 32.1836 7.375C31.9336 7.51953 31.7227 7.70898 31.5508 7.94336C31.3828 8.17383 31.2539 8.42188 31.1641 8.6875C31.0742 8.94922 31.0254 9.19922 31.0176 9.4375ZM41.1953 11.7695V4H41.8984V13H41.2422L41.1953 11.7695ZM36.7949 9.89453V9.77148C36.7949 9.2793 36.8516 8.83594 36.9648 8.44141C37.0781 8.04297 37.2402 7.70312 37.4512 7.42188C37.666 7.13672 37.9238 6.91992 38.2246 6.77148C38.5254 6.61914 38.8652 6.54297 39.2441 6.54297C39.6152 6.54297 39.9434 6.60352 40.2285 6.72461C40.5137 6.8457 40.7578 7.01953 40.9609 7.24609C41.168 7.47266 41.334 7.74219 41.459 8.05469C41.5879 8.36719 41.6816 8.71484 41.7402 9.09766V10.6621C41.6934 11.0215 41.6074 11.3516 41.4824 11.6523C41.3574 11.9492 41.1914 12.209 40.9844 12.4316C40.7773 12.6504 40.5273 12.8203 40.2344 12.9414C39.9453 13.0586 39.6113 13.1172 39.2324 13.1172C38.8574 13.1172 38.5195 13.0391 38.2188 12.8828C37.918 12.7266 37.6621 12.5059 37.4512 12.2207C37.2402 11.9316 37.0781 11.5898 36.9648 11.1953C36.8516 10.8008 36.7949 10.3672 36.7949 9.89453ZM37.498 9.77148V9.89453C37.498 10.2656 37.5352 10.6094 37.6094 10.9258C37.6836 11.2422 37.7969 11.5176 37.9492 11.752C38.1016 11.9863 38.2949 12.1699 38.5293 12.3027C38.7637 12.4355 39.041 12.502 39.3613 12.502C39.7637 12.502 40.1016 12.4258 40.375 12.2734C40.6484 12.1172 40.8672 11.9121 41.0312 11.6582C41.1953 11.4004 41.3145 11.1191 41.3887 10.8145V8.99219C41.3418 8.78516 41.2734 8.57422 41.1836 8.35938C41.0938 8.14453 40.9707 7.94727 40.8145 7.76758C40.6621 7.58398 40.4668 7.4375 40.2285 7.32812C39.9941 7.21484 39.709 7.1582 39.373 7.1582C39.0488 7.1582 38.7695 7.22461 38.5352 7.35742C38.3008 7.49023 38.1055 7.67578 37.9492 7.91406C37.7969 8.14844 37.6836 8.42383 37.6094 8.74023C37.5352 9.05664 37.498 9.40039 37.498 9.77148ZM44.5234 6.66016V13H43.8262V6.66016H44.5234ZM43.7031 4.82617C43.7031 4.69336 43.7441 4.58203 43.8262 4.49219C43.9121 4.39844 44.0293 4.35156 44.1777 4.35156C44.3262 4.35156 44.4434 4.39844 44.5293 4.49219C44.6191 4.58203 44.6641 4.69336 44.6641 4.82617C44.6641 4.95508 44.6191 5.06641 44.5293 5.16016C44.4434 5.25 44.3262 5.29492 44.1777 5.29492C44.0293 5.29492 43.9121 5.25 43.8262 5.16016C43.7441 5.06641 43.7031 4.95508 43.7031 4.82617ZM48.7773 12.5137C49.0742 12.5137 49.3516 12.459 49.6094 12.3496C49.8711 12.2363 50.0859 12.0703 50.2539 11.8516C50.4258 11.6289 50.5234 11.3574 50.5469 11.0371H51.2148C51.1953 11.4395 51.0723 11.7988 50.8457 12.1152C50.623 12.4277 50.3301 12.6738 49.9668 12.8535C49.6074 13.0293 49.2109 13.1172 48.7773 13.1172C48.3359 13.1172 47.9453 13.0371 47.6055 12.877C47.2695 12.7168 46.9883 12.4941 46.7617 12.209C46.5352 11.9199 46.3633 11.584 46.2461 11.2012C46.1328 10.8145 46.0762 10.3984 46.0762 9.95312V9.70703C46.0762 9.26172 46.1328 8.84766 46.2461 8.46484C46.3633 8.07812 46.5352 7.74219 46.7617 7.45703C46.9883 7.16797 47.2695 6.94336 47.6055 6.7832C47.9414 6.62305 48.3301 6.54297 48.7715 6.54297C49.2246 6.54297 49.6309 6.63477 49.9902 6.81836C50.3535 7.00195 50.6426 7.26172 50.8574 7.59766C51.0762 7.93359 51.1953 8.33203 51.2148 8.79297H50.5469C50.5273 8.45312 50.4375 8.16016 50.2773 7.91406C50.1172 7.66797 49.9062 7.47852 49.6445 7.3457C49.3828 7.21289 49.0918 7.14648 48.7715 7.14648C48.4121 7.14648 48.1055 7.2168 47.8516 7.35742C47.5977 7.49414 47.3906 7.68359 47.2305 7.92578C47.0742 8.16406 46.959 8.4375 46.8848 8.74609C46.8105 9.05078 46.7734 9.37109 46.7734 9.70703V9.95312C46.7734 10.293 46.8086 10.6172 46.8789 10.9258C46.9531 11.2305 47.0684 11.502 47.2246 11.7402C47.3848 11.9785 47.5918 12.168 47.8457 12.3086C48.1035 12.4453 48.4141 12.5137 48.7773 12.5137ZM56.4824 11.8633V8.59375C56.4824 8.29297 56.4199 8.0332 56.2949 7.81445C56.1699 7.5957 55.9863 7.42773 55.7441 7.31055C55.502 7.19336 55.2031 7.13477 54.8477 7.13477C54.5195 7.13477 54.2266 7.19336 53.9688 7.31055C53.7148 7.42383 53.5137 7.57812 53.3652 7.77344C53.2207 7.96484 53.1484 8.17773 53.1484 8.41211L52.4453 8.40625C52.4453 8.16797 52.5039 7.9375 52.6211 7.71484C52.7383 7.49219 52.9043 7.29297 53.1191 7.11719C53.334 6.94141 53.5898 6.80273 53.8867 6.70117C54.1875 6.5957 54.5176 6.54297 54.877 6.54297C55.3301 6.54297 55.7285 6.61914 56.0723 6.77148C56.4199 6.92383 56.6914 7.15234 56.8867 7.45703C57.082 7.76172 57.1797 8.14453 57.1797 8.60547V11.6699C57.1797 11.8887 57.1953 12.1152 57.2266 12.3496C57.2617 12.584 57.3105 12.7773 57.373 12.9297V13H56.6289C56.582 12.8594 56.5449 12.6836 56.5176 12.4727C56.4941 12.2578 56.4824 12.0547 56.4824 11.8633ZM56.6465 9.30859L56.6582 9.84766H55.2812C54.9219 9.84766 54.5996 9.88086 54.3145 9.94727C54.0332 10.0098 53.7949 10.1035 53.5996 10.2285C53.4043 10.3496 53.2539 10.4961 53.1484 10.668C53.0469 10.8398 52.9961 11.0352 52.9961 11.2539C52.9961 11.4805 53.0527 11.6875 53.166 11.875C53.2832 12.0625 53.4473 12.2129 53.6582 12.3262C53.873 12.4355 54.127 12.4902 54.4199 12.4902C54.8105 12.4902 55.1543 12.418 55.4512 12.2734C55.752 12.1289 56 11.9395 56.1953 11.7051C56.3906 11.4707 56.5215 11.2148 56.5879 10.9375L56.8926 11.3418C56.8418 11.5371 56.748 11.7383 56.6113 11.9453C56.4785 12.1484 56.3047 12.3398 56.0898 12.5195C55.875 12.6953 55.6211 12.8398 55.3281 12.9531C55.0391 13.0625 54.7109 13.1172 54.3438 13.1172C53.9297 13.1172 53.5684 13.0391 53.2598 12.8828C52.9551 12.7266 52.7168 12.5137 52.5449 12.2441C52.377 11.9707 52.293 11.6621 52.293 11.3184C52.293 11.0059 52.3594 10.7266 52.4922 10.4805C52.625 10.2305 52.8164 10.0195 53.0664 9.84766C53.3203 9.67188 53.625 9.53906 53.9805 9.44922C54.3398 9.35547 54.7422 9.30859 55.1875 9.30859H56.6465ZM61.3984 12.5137C61.6953 12.5137 61.9727 12.459 62.2305 12.3496C62.4922 12.2363 62.707 12.0703 62.875 11.8516C63.0469 11.6289 63.1445 11.3574 63.168 11.0371H63.8359C63.8164 11.4395 63.6934 11.7988 63.4668 12.1152C63.2441 12.4277 62.9512 12.6738 62.5879 12.8535C62.2285 13.0293 61.832 13.1172 61.3984 13.1172C60.957 13.1172 60.5664 13.0371 60.2266 12.877C59.8906 12.7168 59.6094 12.4941 59.3828 12.209C59.1562 11.9199 58.9844 11.584 58.8672 11.2012C58.7539 10.8145 58.6973 10.3984 58.6973 9.95312V9.70703C58.6973 9.26172 58.7539 8.84766 58.8672 8.46484C58.9844 8.07812 59.1562 7.74219 59.3828 7.45703C59.6094 7.16797 59.8906 6.94336 60.2266 6.7832C60.5625 6.62305 60.9512 6.54297 61.3926 6.54297C61.8457 6.54297 62.252 6.63477 62.6113 6.81836C62.9746 7.00195 63.2637 7.26172 63.4785 7.59766C63.6973 7.93359 63.8164 8.33203 63.8359 8.79297H63.168C63.1484 8.45312 63.0586 8.16016 62.8984 7.91406C62.7383 7.66797 62.5273 7.47852 62.2656 7.3457C62.0039 7.21289 61.7129 7.14648 61.3926 7.14648C61.0332 7.14648 60.7266 7.2168 60.4727 7.35742C60.2188 7.49414 60.0117 7.68359 59.8516 7.92578C59.6953 8.16406 59.5801 8.4375 59.5059 8.74609C59.4316 9.05078 59.3945 9.37109 59.3945 9.70703V9.95312C59.3945 10.293 59.4297 10.6172 59.5 10.9258C59.5742 11.2305 59.6895 11.502 59.8457 11.7402C60.0059 11.9785 60.2129 12.168 60.4668 12.3086C60.7246 12.4453 61.0352 12.5137 61.3984 12.5137ZM66.0273 6.66016V13H65.3301V6.66016H66.0273ZM65.207 4.82617C65.207 4.69336 65.248 4.58203 65.3301 4.49219C65.416 4.39844 65.5332 4.35156 65.6816 4.35156C65.8301 4.35156 65.9473 4.39844 66.0332 4.49219C66.123 4.58203 66.168 4.69336 66.168 4.82617C66.168 4.95508 66.123 5.06641 66.0332 5.16016C65.9473 5.25 65.8301 5.29492 65.6816 5.29492C65.5332 5.29492 65.416 5.25 65.3301 5.16016C65.248 5.06641 65.207 4.95508 65.207 4.82617ZM67.5566 9.92969V9.73633C67.5566 9.27539 67.623 8.84961 67.7559 8.45898C67.8887 8.06836 68.0781 7.73047 68.3242 7.44531C68.5742 7.16016 68.873 6.93945 69.2207 6.7832C69.5684 6.62305 69.9551 6.54297 70.3809 6.54297C70.8105 6.54297 71.1992 6.62305 71.5469 6.7832C71.8945 6.93945 72.1934 7.16016 72.4434 7.44531C72.6934 7.73047 72.8848 8.06836 73.0176 8.45898C73.1504 8.84961 73.2168 9.27539 73.2168 9.73633V9.92969C73.2168 10.3906 73.1504 10.8164 73.0176 11.207C72.8848 11.5938 72.6934 11.9297 72.4434 12.2148C72.1973 12.5 71.9004 12.7227 71.5527 12.8828C71.2051 13.0391 70.8184 13.1172 70.3926 13.1172C69.9629 13.1172 69.5742 13.0391 69.2266 12.8828C68.8789 12.7227 68.5801 12.5 68.3301 12.2148C68.0801 11.9297 67.8887 11.5938 67.7559 11.207C67.623 10.8164 67.5566 10.3906 67.5566 9.92969ZM68.2539 9.73633V9.92969C68.2539 10.2773 68.3008 10.6074 68.3945 10.9199C68.4883 11.2285 68.625 11.5039 68.8047 11.7461C68.9844 11.9844 69.207 12.1719 69.4727 12.3086C69.7383 12.4453 70.0449 12.5137 70.3926 12.5137C70.7363 12.5137 71.0391 12.4453 71.3008 12.3086C71.5664 12.1719 71.7891 11.9844 71.9688 11.7461C72.1484 11.5039 72.2832 11.2285 72.373 10.9199C72.4668 10.6074 72.5137 10.2773 72.5137 9.92969V9.73633C72.5137 9.39258 72.4668 9.06641 72.373 8.75781C72.2832 8.44922 72.1465 8.17383 71.9629 7.93164C71.7832 7.68945 71.5605 7.49805 71.2949 7.35742C71.0293 7.2168 70.7246 7.14648 70.3809 7.14648C70.0371 7.14648 69.7324 7.2168 69.4668 7.35742C69.2051 7.49805 68.9824 7.68945 68.7988 7.93164C68.6191 8.17383 68.4824 8.44922 68.3887 8.75781C68.2988 9.06641 68.2539 9.39258 68.2539 9.73633ZM75.3672 8.01367V13H74.6699V6.66016H75.3379L75.3672 8.01367ZM75.209 9.4375L74.8984 9.26172C74.9219 8.88672 74.998 8.53516 75.127 8.20703C75.2559 7.87891 75.4297 7.58984 75.6484 7.33984C75.8711 7.08984 76.1309 6.89453 76.4277 6.75391C76.7285 6.61328 77.0605 6.54297 77.4238 6.54297C77.7402 6.54297 78.0234 6.58594 78.2734 6.67188C78.5234 6.75781 78.7363 6.89453 78.9121 7.08203C79.0879 7.26953 79.2207 7.50977 79.3105 7.80273C79.4043 8.0957 79.4512 8.45312 79.4512 8.875V13H78.748V8.86914C78.748 8.43164 78.6875 8.08984 78.5664 7.84375C78.4453 7.59375 78.2734 7.41602 78.0508 7.31055C77.8281 7.20508 77.5645 7.15234 77.2598 7.15234C76.9238 7.15234 76.6289 7.22656 76.375 7.375C76.125 7.51953 75.9141 7.70898 75.7422 7.94336C75.5742 8.17383 75.4453 8.42188 75.3555 8.6875C75.2656 8.94922 75.2168 9.19922 75.209 9.4375ZM83.7168 13.1172C83.3027 13.1172 82.9219 13.041 82.5742 12.8887C82.2305 12.7363 81.9297 12.5215 81.6719 12.2441C81.418 11.9668 81.2207 11.6387 81.0801 11.2598C80.9434 10.877 80.875 10.459 80.875 10.0059V9.75391C80.875 9.26562 80.9473 8.82422 81.0918 8.42969C81.2363 8.03516 81.4355 7.69727 81.6895 7.41602C81.9434 7.13477 82.2324 6.91992 82.5566 6.77148C82.8848 6.61914 83.2285 6.54297 83.5879 6.54297C83.9902 6.54297 84.3477 6.61523 84.6602 6.75977C84.9727 6.90039 85.2344 7.10156 85.4453 7.36328C85.6602 7.62109 85.8223 7.92773 85.9316 8.2832C86.041 8.63477 86.0957 9.02344 86.0957 9.44922V9.87695H81.2969V9.2793H85.3984V9.19727C85.3906 8.8418 85.3184 8.50977 85.1816 8.20117C85.0488 7.88867 84.8496 7.63477 84.584 7.43945C84.3184 7.24414 83.9863 7.14648 83.5879 7.14648C83.291 7.14648 83.0176 7.20898 82.7676 7.33398C82.5215 7.45898 82.3086 7.63867 82.1289 7.87305C81.9531 8.10352 81.8164 8.37891 81.7188 8.69922C81.625 9.01562 81.5781 9.36719 81.5781 9.75391V10.0059C81.5781 10.3574 81.6289 10.6855 81.7305 10.9902C81.8359 11.291 81.9844 11.5566 82.1758 11.7871C82.3711 12.0176 82.6016 12.1973 82.8672 12.3262C83.1328 12.4551 83.4258 12.5195 83.7461 12.5195C84.1211 12.5195 84.4531 12.4512 84.7422 12.3145C85.0312 12.1738 85.291 11.9531 85.5215 11.6523L85.9609 11.9922C85.8242 12.1953 85.6523 12.3828 85.4453 12.5547C85.2422 12.7266 84.998 12.8633 84.7129 12.9648C84.4277 13.0664 84.0957 13.1172 83.7168 13.1172ZM91.2754 11.3828C91.2754 11.2109 91.2324 11.041 91.1465 10.873C91.0605 10.7051 90.8945 10.5508 90.6484 10.4102C90.4062 10.2695 90.0488 10.1504 89.5762 10.0527C89.2246 9.97461 88.9102 9.88672 88.6328 9.78906C88.3594 9.69141 88.1289 9.57422 87.9414 9.4375C87.7539 9.30078 87.6113 9.13672 87.5137 8.94531C87.416 8.75391 87.3672 8.52734 87.3672 8.26562C87.3672 8.03125 87.418 7.81055 87.5195 7.60352C87.625 7.39258 87.7734 7.20898 87.9648 7.05273C88.1602 6.89258 88.3945 6.76758 88.668 6.67773C88.9453 6.58789 89.2559 6.54297 89.5996 6.54297C90.0879 6.54297 90.5059 6.62695 90.8535 6.79492C91.2051 6.95898 91.4727 7.18359 91.6562 7.46875C91.8438 7.75391 91.9375 8.07617 91.9375 8.43555H91.2402C91.2402 8.2168 91.1758 8.00977 91.0469 7.81445C90.9219 7.61914 90.7363 7.45898 90.4902 7.33398C90.248 7.20898 89.9512 7.14648 89.5996 7.14648C89.2363 7.14648 88.9414 7.20117 88.7148 7.31055C88.4883 7.41992 88.3223 7.55859 88.2168 7.72656C88.1152 7.89453 88.0645 8.06836 88.0645 8.24805C88.0645 8.38867 88.0859 8.51758 88.1289 8.63477C88.1758 8.74805 88.2578 8.85352 88.375 8.95117C88.4961 9.04883 88.668 9.14062 88.8906 9.22656C89.1133 9.3125 89.4023 9.39648 89.7578 9.47852C90.2695 9.5918 90.6875 9.73047 91.0117 9.89453C91.3398 10.0547 91.582 10.2539 91.7383 10.4922C91.8945 10.7266 91.9727 11.0117 91.9727 11.3477C91.9727 11.6094 91.918 11.8496 91.8086 12.0684C91.6992 12.2832 91.541 12.4688 91.334 12.625C91.1309 12.7812 90.8848 12.9023 90.5957 12.9883C90.3105 13.0742 89.9902 13.1172 89.6348 13.1172C89.0996 13.1172 88.6465 13.0293 88.2754 12.8535C87.9082 12.6738 87.6289 12.4395 87.4375 12.1504C87.25 11.8574 87.1562 11.5469 87.1562 11.2188H87.8535C87.877 11.5469 87.9805 11.8066 88.1641 11.998C88.3477 12.1855 88.5723 12.3184 88.8379 12.3965C89.1074 12.4746 89.373 12.5137 89.6348 12.5137C89.9941 12.5137 90.2949 12.4609 90.5371 12.3555C90.7793 12.25 90.9629 12.1113 91.0879 11.9395C91.2129 11.7676 91.2754 11.582 91.2754 11.3828Z" fill="#51BFA6"/>
<rect y="9.89954" width="14" height="14" transform="rotate(-45 0 9.89954)" fill="#51BFA6"/>
<path d="M6.625 14C6.625 14.2071 6.79289 14.375 7 14.375C7.20711 14.375 7.375 14.2071 7.375 14H6.625ZM16 8L12.25 5.83494V10.1651L16 8ZM7.375 14V9.63636H6.625V14H7.375ZM7.375 9.63636C7.375 9.46423 7.45695 9.15615 7.74569 8.8888C8.02881 8.62665 8.5433 8.375 9.45455 8.375V7.625C8.40215 7.625 7.68937 7.91881 7.23613 8.33848C6.78851 8.75294 6.625 9.26304 6.625 9.63636H7.375ZM9.45455 8.375C9.45629 8.375 9.45804 8.375 9.45979 8.375C9.46154 8.375 9.46329 8.375 9.46504 8.375C9.46679 8.375 9.46854 8.375 9.4703 8.375C9.47205 8.375 9.4738 8.375 9.47556 8.375C9.47731 8.375 9.47907 8.375 9.48082 8.375C9.48258 8.375 9.48434 8.375 9.4861 8.375C9.48786 8.375 9.48962 8.375 9.49138 8.375C9.49314 8.375 9.4949 8.375 9.49666 8.375C9.49843 8.375 9.50019 8.375 9.50195 8.375C9.50372 8.375 9.50549 8.375 9.50725 8.375C9.50902 8.375 9.51079 8.375 9.51255 8.375C9.51432 8.375 9.51609 8.375 9.51786 8.375C9.51963 8.375 9.52141 8.375 9.52318 8.375C9.52495 8.375 9.52672 8.375 9.5285 8.375C9.53027 8.375 9.53205 8.375 9.53382 8.375C9.5356 8.375 9.53738 8.375 9.53916 8.375C9.54093 8.375 9.54271 8.375 9.54449 8.375C9.54627 8.375 9.54805 8.375 9.54984 8.375C9.55162 8.375 9.5534 8.375 9.55519 8.375C9.55697 8.375 9.55875 8.375 9.56054 8.375C9.56233 8.375 9.56411 8.375 9.5659 8.375C9.56769 8.375 9.56948 8.375 9.57127 8.375C9.57306 8.375 9.57485 8.375 9.57664 8.375C9.57843 8.375 9.58022 8.375 9.58202 8.375C9.58381 8.375 9.5856 8.375 9.5874 8.375C9.58919 8.375 9.59099 8.375 9.59279 8.375C9.59459 8.375 9.59638 8.375 9.59818 8.375C9.59998 8.375 9.60178 8.375 9.60358 8.375C9.60538 8.375 9.60718 8.375 9.60899 8.375C9.61079 8.375 9.61259 8.375 9.6144 8.375C9.6162 8.375 9.61801 8.375 9.61982 8.375C9.62162 8.375 9.62343 8.375 9.62524 8.375C9.62705 8.375 9.62886 8.375 9.63067 8.375C9.63248 8.375 9.63429 8.375 9.6361 8.375C9.63791 8.375 9.63972 8.375 9.64154 8.375C9.64335 8.375 9.64517 8.375 9.64698 8.375C9.6488 8.375 9.65061 8.375 9.65243 8.375C9.65425 8.375 9.65607 8.375 9.65789 8.375C9.65971 8.375 9.66153 8.375 9.66335 8.375C9.66517 8.375 9.66699 8.375 9.66881 8.375C9.67064 8.375 9.67246 8.375 9.67428 8.375C9.67611 8.375 9.67794 8.375 9.67976 8.375C9.68159 8.375 9.68342 8.375 9.68524 8.375C9.68707 8.375 9.6889 8.375 9.69073 8.375C9.69256 8.375 9.69439 8.375 9.69623 8.375C9.69806 8.375 9.69989 8.375 9.70172 8.375C9.70356 8.375 9.70539 8.375 9.70723 8.375C9.70906 8.375 9.7109 8.375 9.71274 8.375C9.71457 8.375 9.71641 8.375 9.71825 8.375C9.72009 8.375 9.72193 8.375 9.72377 8.375C9.72561 8.375 9.72745 8.375 9.7293 8.375C9.73114 8.375 9.73298 8.375 9.73483 8.375C9.73667 8.375 9.73852 8.375 9.74036 8.375C9.74221 8.375 9.74406 8.375 9.7459 8.375C9.74775 8.375 9.7496 8.375 9.75145 8.375C9.7533 8.375 9.75515 8.375 9.757 8.375C9.75885 8.375 9.76071 8.375 9.76256 8.375C9.76441 8.375 9.76627 8.375 9.76812 8.375C9.76997 8.375 9.77183 8.375 9.77369 8.375C9.77554 8.375 9.7774 8.375 9.77926 8.375C9.78112 8.375 9.78298 8.375 9.78484 8.375C9.7867 8.375 9.78856 8.375 9.79042 8.375C9.79228 8.375 9.79414 8.375 9.79601 8.375C9.79787 8.375 9.79974 8.375 9.8016 8.375C9.80347 8.375 9.80533 8.375 9.8072 8.375C9.80907 8.375 9.81093 8.375 9.8128 8.375C9.81467 8.375 9.81654 8.375 9.81841 8.375C9.82028 8.375 9.82215 8.375 9.82402 8.375C9.82589 8.375 9.82777 8.375 9.82964 8.375C9.83151 8.375 9.83339 8.375 9.83526 8.375C9.83714 8.375 9.83902 8.375 9.84089 8.375C9.84277 8.375 9.84465 8.375 9.84653 8.375C9.84841 8.375 9.85028 8.375 9.85216 8.375C9.85405 8.375 9.85593 8.375 9.85781 8.375C9.85969 8.375 9.86157 8.375 9.86346 8.375C9.86534 8.375 9.86723 8.375 9.86911 8.375C9.871 8.375 9.87288 8.375 9.87477 8.375C9.87666 8.375 9.87854 8.375 9.88043 8.375C9.88232 8.375 9.88421 8.375 9.8861 8.375C9.88799 8.375 9.88988 8.375 9.89177 8.375C9.89367 8.375 9.89556 8.375 9.89745 8.375C9.89935 8.375 9.90124 8.375 9.90313 8.375C9.90503 8.375 9.90693 8.375 9.90882 8.375C9.91072 8.375 9.91262 8.375 9.91452 8.375C9.91641 8.375 9.91831 8.375 9.92021 8.375C9.92211 8.375 9.92401 8.375 9.92592 8.375C9.92782 8.375 9.92972 8.375 9.93162 8.375C9.93353 8.375 9.93543 8.375 9.93733 8.375C9.93924 8.375 9.94115 8.375 9.94305 8.375C9.94496 8.375 9.94687 8.375 9.94877 8.375C9.95068 8.375 9.95259 8.375 9.9545 8.375C9.95641 8.375 9.95832 8.375 9.96023 8.375C9.96214 8.375 9.96405 8.375 9.96597 8.375C9.96788 8.375 9.96979 8.375 9.97171 8.375C9.97362 8.375 9.97554 8.375 9.97745 8.375C9.97937 8.375 9.98129 8.375 9.9832 8.375C9.98512 8.375 9.98704 8.375 9.98896 8.375C9.99088 8.375 9.9928 8.375 9.99472 8.375C9.99664 8.375 9.99856 8.375 10.0005 8.375C10.0024 8.375 10.0043 8.375 10.0063 8.375C10.0082 8.375 10.0101 8.375 10.012 8.375C10.0139 8.375 10.0159 8.375 10.0178 8.375C10.0197 8.375 10.0217 8.375 10.0236 8.375C10.0255 8.375 10.0274 8.375 10.0294 8.375C10.0313 8.375 10.0332 8.375 10.0352 8.375C10.0371 8.375 10.039 8.375 10.041 8.375C10.0429 8.375 10.0448 8.375 10.0468 8.375C10.0487 8.375 10.0506 8.375 10.0526 8.375C10.0545 8.375 10.0564 8.375 10.0584 8.375C10.0603 8.375 10.0623 8.375 10.0642 8.375C10.0661 8.375 10.0681 8.375 10.07 8.375C10.072 8.375 10.0739 8.375 10.0758 8.375C10.0778 8.375 10.0797 8.375 10.0817 8.375C10.0836 8.375 10.0856 8.375 10.0875 8.375C10.0894 8.375 10.0914 8.375 10.0933 8.375C10.0953 8.375 10.0972 8.375 10.0992 8.375C10.1011 8.375 10.1031 8.375 10.105 8.375C10.107 8.375 10.1089 8.375 10.1109 8.375C10.1128 8.375 10.1148 8.375 10.1167 8.375C10.1187 8.375 10.1206 8.375 10.1226 8.375C10.1245 8.375 10.1265 8.375 10.1284 8.375C10.1304 8.375 10.1324 8.375 10.1343 8.375C10.1363 8.375 10.1382 8.375 10.1402 8.375C10.1421 8.375 10.1441 8.375 10.1461 8.375C10.148 8.375 10.15 8.375 10.1519 8.375C10.1539 8.375 10.1559 8.375 10.1578 8.375C10.1598 8.375 10.1618 8.375 10.1637 8.375C10.1657 8.375 10.1677 8.375 10.1696 8.375C10.1716 8.375 10.1735 8.375 10.1755 8.375C10.1775 8.375 10.1794 8.375 10.1814 8.375C10.1834 8.375 10.1854 8.375 10.1873 8.375C10.1893 8.375 10.1913 8.375 10.1932 8.375C10.1952 8.375 10.1972 8.375 10.1991 8.375C10.2011 8.375 10.2031 8.375 10.2051 8.375C10.207 8.375 10.209 8.375 10.211 8.375C10.213 8.375 10.2149 8.375 10.2169 8.375C10.2189 8.375 10.2209 8.375 10.2229 8.375C10.2248 8.375 10.2268 8.375 10.2288 8.375C10.2308 8.375 10.2327 8.375 10.2347 8.375C10.2367 8.375 10.2387 8.375 10.2407 8.375C10.2427 8.375 10.2446 8.375 10.2466 8.375C10.2486 8.375 10.2506 8.375 10.2526 8.375C10.2546 8.375 10.2565 8.375 10.2585 8.375C10.2605 8.375 10.2625 8.375 10.2645 8.375C10.2665 8.375 10.2685 8.375 10.2705 8.375C10.2724 8.375 10.2744 8.375 10.2764 8.375C10.2784 8.375 10.2804 8.375 10.2824 8.375C10.2844 8.375 10.2864 8.375 10.2884 8.375C10.2904 8.375 10.2924 8.375 10.2944 8.375C10.2964 8.375 10.2983 8.375 10.3003 8.375C10.3023 8.375 10.3043 8.375 10.3063 8.375C10.3083 8.375 10.3103 8.375 10.3123 8.375C10.3143 8.375 10.3163 8.375 10.3183 8.375C10.3203 8.375 10.3223 8.375 10.3243 8.375C10.3263 8.375 10.3283 8.375 10.3303 8.375C10.3323 8.375 10.3343 8.375 10.3363 8.375C10.3383 8.375 10.3403 8.375 10.3423 8.375C10.3444 8.375 10.3464 8.375 10.3484 8.375C10.3504 8.375 10.3524 8.375 10.3544 8.375C10.3564 8.375 10.3584 8.375 10.3604 8.375C10.3624 8.375 10.3644 8.375 10.3664 8.375C10.3684 8.375 10.3705 8.375 10.3725 8.375C10.3745 8.375 10.3765 8.375 10.3785 8.375C10.3805 8.375 10.3825 8.375 10.3845 8.375C10.3866 8.375 10.3886 8.375 10.3906 8.375C10.3926 8.375 10.3946 8.375 10.3966 8.375C10.3986 8.375 10.4007 8.375 10.4027 8.375C10.4047 8.375 10.4067 8.375 10.4087 8.375C10.4108 8.375 10.4128 8.375 10.4148 8.375C10.4168 8.375 10.4188 8.375 10.4209 8.375C10.4229 8.375 10.4249 8.375 10.4269 8.375C10.4289 8.375 10.431 8.375 10.433 8.375C10.435 8.375 10.437 8.375 10.4391 8.375C10.4411 8.375 10.4431 8.375 10.4451 8.375C10.4472 8.375 10.4492 8.375 10.4512 8.375C10.4533 8.375 10.4553 8.375 10.4573 8.375C10.4593 8.375 10.4614 8.375 10.4634 8.375C10.4654 8.375 10.4675 8.375 10.4695 8.375C10.4715 8.375 10.4736 8.375 10.4756 8.375C10.4776 8.375 10.4797 8.375 10.4817 8.375C10.4837 8.375 10.4858 8.375 10.4878 8.375C10.4898 8.375 10.4919 8.375 10.4939 8.375C10.4959 8.375 10.498 8.375 10.5 8.375C10.502 8.375 10.5041 8.375 10.5061 8.375C10.5082 8.375 10.5102 8.375 10.5122 8.375C10.5143 8.375 10.5163 8.375 10.5184 8.375C10.5204 8.375 10.5224 8.375 10.5245 8.375C10.5265 8.375 10.5286 8.375 10.5306 8.375C10.5326 8.375 10.5347 8.375 10.5367 8.375C10.5388 8.375 10.5408 8.375 10.5429 8.375C10.5449 8.375 10.547 8.375 10.549 8.375C10.5511 8.375 10.5531 8.375 10.5551 8.375C10.5572 8.375 10.5592 8.375 10.5613 8.375C10.5633 8.375 10.5654 8.375 10.5674 8.375C10.5695 8.375 10.5715 8.375 10.5736 8.375C10.5756 8.375 10.5777 8.375 10.5797 8.375C10.5818 8.375 10.5839 8.375 10.5859 8.375C10.588 8.375 10.59 8.375 10.5921 8.375C10.5941 8.375 10.5962 8.375 10.5982 8.375C10.6003 8.375 10.6023 8.375 10.6044 8.375C10.6065 8.375 10.6085 8.375 10.6106 8.375C10.6126 8.375 10.6147 8.375 10.6167 8.375C10.6188 8.375 10.6209 8.375 10.6229 8.375C10.625 8.375 10.627 8.375 10.6291 8.375C10.6312 8.375 10.6332 8.375 10.6353 8.375C10.6374 8.375 10.6394 8.375 10.6415 8.375C10.6435 8.375 10.6456 8.375 10.6477 8.375C10.6497 8.375 10.6518 8.375 10.6539 8.375C10.6559 8.375 10.658 8.375 10.6601 8.375C10.6621 8.375 10.6642 8.375 10.6663 8.375C10.6683 8.375 10.6704 8.375 10.6725 8.375C10.6745 8.375 10.6766 8.375 10.6787 8.375C10.6807 8.375 10.6828 8.375 10.6849 8.375C10.687 8.375 10.689 8.375 10.6911 8.375C10.6932 8.375 10.6952 8.375 10.6973 8.375C10.6994 8.375 10.7015 8.375 10.7035 8.375C10.7056 8.375 10.7077 8.375 10.7098 8.375C10.7118 8.375 10.7139 8.375 10.716 8.375C10.7181 8.375 10.7201 8.375 10.7222 8.375C10.7243 8.375 10.7264 8.375 10.7284 8.375C10.7305 8.375 10.7326 8.375 10.7347 8.375C10.7368 8.375 10.7388 8.375 10.7409 8.375C10.743 8.375 10.7451 8.375 10.7472 8.375C10.7492 8.375 10.7513 8.375 10.7534 8.375C10.7555 8.375 10.7576 8.375 10.7597 8.375C10.7617 8.375 10.7638 8.375 10.7659 8.375C10.768 8.375 10.7701 8.375 10.7722 8.375C10.7742 8.375 10.7763 8.375 10.7784 8.375C10.7805 8.375 10.7826 8.375 10.7847 8.375C10.7868 8.375 10.7888 8.375 10.7909 8.375C10.793 8.375 10.7951 8.375 10.7972 8.375C10.7993 8.375 10.8014 8.375 10.8035 8.375C10.8056 8.375 10.8077 8.375 10.8097 8.375C10.8118 8.375 10.8139 8.375 10.816 8.375C10.8181 8.375 10.8202 8.375 10.8223 8.375C10.8244 8.375 10.8265 8.375 10.8286 8.375C10.8307 8.375 10.8328 8.375 10.8349 8.375C10.837 8.375 10.839 8.375 10.8411 8.375C10.8432 8.375 10.8453 8.375 10.8474 8.375C10.8495 8.375 10.8516 8.375 10.8537 8.375C10.8558 8.375 10.8579 8.375 10.86 8.375C10.8621 8.375 10.8642 8.375 10.8663 8.375C10.8684 8.375 10.8705 8.375 10.8726 8.375C10.8747 8.375 10.8768 8.375 10.8789 8.375C10.881 8.375 10.8831 8.375 10.8852 8.375C10.8873 8.375 10.8894 8.375 10.8915 8.375C10.8936 8.375 10.8957 8.375 10.8978 8.375C10.8999 8.375 10.902 8.375 10.9042 8.375C10.9063 8.375 10.9084 8.375 10.9105 8.375C10.9126 8.375 10.9147 8.375 10.9168 8.375C10.9189 8.375 10.921 8.375 10.9231 8.375C10.9252 8.375 10.9273 8.375 10.9294 8.375C10.9315 8.375 10.9336 8.375 10.9358 8.375C10.9379 8.375 10.94 8.375 10.9421 8.375C10.9442 8.375 10.9463 8.375 10.9484 8.375C10.9505 8.375 10.9526 8.375 10.9548 8.375C10.9569 8.375 10.959 8.375 10.9611 8.375C10.9632 8.375 10.9653 8.375 10.9674 8.375C10.9695 8.375 10.9717 8.375 10.9738 8.375C10.9759 8.375 10.978 8.375 10.9801 8.375C10.9822 8.375 10.9843 8.375 10.9865 8.375C10.9886 8.375 10.9907 8.375 10.9928 8.375C10.9949 8.375 10.997 8.375 10.9992 8.375C11.0013 8.375 11.0034 8.375 11.0055 8.375C11.0076 8.375 11.0098 8.375 11.0119 8.375C11.014 8.375 11.0161 8.375 11.0182 8.375C11.0204 8.375 11.0225 8.375 11.0246 8.375C11.0267 8.375 11.0288 8.375 11.031 8.375C11.0331 8.375 11.0352 8.375 11.0373 8.375C11.0395 8.375 11.0416 8.375 11.0437 8.375C11.0458 8.375 11.048 8.375 11.0501 8.375C11.0522 8.375 11.0543 8.375 11.0565 8.375C11.0586 8.375 11.0607 8.375 11.0628 8.375C11.065 8.375 11.0671 8.375 11.0692 8.375C11.0713 8.375 11.0735 8.375 11.0756 8.375C11.0777 8.375 11.0798 8.375 11.082 8.375C11.0841 8.375 11.0862 8.375 11.0884 8.375C11.0905 8.375 11.0926 8.375 11.0947 8.375C11.0969 8.375 11.099 8.375 11.1011 8.375C11.1033 8.375 11.1054 8.375 11.1075 8.375C11.1097 8.375 11.1118 8.375 11.1139 8.375C11.1161 8.375 11.1182 8.375 11.1203 8.375C11.1225 8.375 11.1246 8.375 11.1267 8.375C11.1289 8.375 11.131 8.375 11.1331 8.375C11.1353 8.375 11.1374 8.375 11.1395 8.375C11.1417 8.375 11.1438 8.375 11.1459 8.375C11.1481 8.375 11.1502 8.375 11.1523 8.375C11.1545 8.375 11.1566 8.375 11.1588 8.375C11.1609 8.375 11.163 8.375 11.1652 8.375C11.1673 8.375 11.1694 8.375 11.1716 8.375C11.1737 8.375 11.1759 8.375 11.178 8.375C11.1801 8.375 11.1823 8.375 11.1844 8.375C11.1866 8.375 11.1887 8.375 11.1908 8.375C11.193 8.375 11.1951 8.375 11.1973 8.375C11.1994 8.375 11.2016 8.375 11.2037 8.375C11.2058 8.375 11.208 8.375 11.2101 8.375C11.2123 8.375 11.2144 8.375 11.2166 8.375C11.2187 8.375 11.2208 8.375 11.223 8.375C11.2251 8.375 11.2273 8.375 11.2294 8.375C11.2316 8.375 11.2337 8.375 11.2359 8.375C11.238 8.375 11.2401 8.375 11.2423 8.375C11.2444 8.375 11.2466 8.375 11.2487 8.375C11.2509 8.375 11.253 8.375 11.2552 8.375C11.2573 8.375 11.2595 8.375 11.2616 8.375C11.2638 8.375 11.2659 8.375 11.2681 8.375C11.2702 8.375 11.2724 8.375 11.2745 8.375C11.2767 8.375 11.2788 8.375 11.281 8.375C11.2831 8.375 11.2853 8.375 11.2874 8.375C11.2896 8.375 11.2917 8.375 11.2939 8.375C11.296 8.375 11.2982 8.375 11.3003 8.375C11.3025 8.375 11.3046 8.375 11.3068 8.375C11.3089 8.375 11.3111 8.375 11.3132 8.375C11.3154 8.375 11.3176 8.375 11.3197 8.375C11.3219 8.375 11.324 8.375 11.3262 8.375C11.3283 8.375 11.3305 8.375 11.3326 8.375C11.3348 8.375 11.3369 8.375 11.3391 8.375C11.3413 8.375 11.3434 8.375 11.3456 8.375C11.3477 8.375 11.3499 8.375 11.352 8.375C11.3542 8.375 11.3564 8.375 11.3585 8.375C11.3607 8.375 11.3628 8.375 11.365 8.375C11.3671 8.375 11.3693 8.375 11.3715 8.375C11.3736 8.375 11.3758 8.375 11.3779 8.375C11.3801 8.375 11.3823 8.375 11.3844 8.375C11.3866 8.375 11.3887 8.375 11.3909 8.375C11.3931 8.375 11.3952 8.375 11.3974 8.375C11.3995 8.375 11.4017 8.375 11.4039 8.375C11.406 8.375 11.4082 8.375 11.4104 8.375C11.4125 8.375 11.4147 8.375 11.4168 8.375C11.419 8.375 11.4212 8.375 11.4233 8.375C11.4255 8.375 11.4277 8.375 11.4298 8.375C11.432 8.375 11.4342 8.375 11.4363 8.375C11.4385 8.375 11.4406 8.375 11.4428 8.375C11.445 8.375 11.4471 8.375 11.4493 8.375C11.4515 8.375 11.4536 8.375 11.4558 8.375C11.458 8.375 11.4601 8.375 11.4623 8.375C11.4645 8.375 11.4666 8.375 11.4688 8.375C11.471 8.375 11.4731 8.375 11.4753 8.375C11.4775 8.375 11.4796 8.375 11.4818 8.375C11.484 8.375 11.4861 8.375 11.4883 8.375C11.4905 8.375 11.4927 8.375 11.4948 8.375C11.497 8.375 11.4992 8.375 11.5013 8.375C11.5035 8.375 11.5057 8.375 11.5078 8.375C11.51 8.375 11.5122 8.375 11.5144 8.375C11.5165 8.375 11.5187 8.375 11.5209 8.375C11.523 8.375 11.5252 8.375 11.5274 8.375C11.5296 8.375 11.5317 8.375 11.5339 8.375C11.5361 8.375 11.5382 8.375 11.5404 8.375C11.5426 8.375 11.5448 8.375 11.5469 8.375C11.5491 8.375 11.5513 8.375 11.5534 8.375C11.5556 8.375 11.5578 8.375 11.56 8.375C11.5621 8.375 11.5643 8.375 11.5665 8.375C11.5687 8.375 11.5708 8.375 11.573 8.375C11.5752 8.375 11.5774 8.375 11.5795 8.375C11.5817 8.375 11.5839 8.375 11.5861 8.375C11.5882 8.375 11.5904 8.375 11.5926 8.375C11.5948 8.375 11.5969 8.375 11.5991 8.375C11.6013 8.375 11.6035 8.375 11.6057 8.375C11.6078 8.375 11.61 8.375 11.6122 8.375C11.6144 8.375 11.6165 8.375 11.6187 8.375C11.6209 8.375 11.6231 8.375 11.6253 8.375C11.6274 8.375 11.6296 8.375 11.6318 8.375C11.634 8.375 11.6361 8.375 11.6383 8.375C11.6405 8.375 11.6427 8.375 11.6449 8.375C11.647 8.375 11.6492 8.375 11.6514 8.375C11.6536 8.375 11.6558 8.375 11.6579 8.375C11.6601 8.375 11.6623 8.375 11.6645 8.375C11.6667 8.375 11.6688 8.375 11.671 8.375C11.6732 8.375 11.6754 8.375 11.6776 8.375C11.6798 8.375 11.6819 8.375 11.6841 8.375C11.6863 8.375 11.6885 8.375 11.6907 8.375C11.6928 8.375 11.695 8.375 11.6972 8.375C11.6994 8.375 11.7016 8.375 11.7038 8.375C11.7059 8.375 11.7081 8.375 11.7103 8.375C11.7125 8.375 11.7147 8.375 11.7169 8.375C11.719 8.375 11.7212 8.375 11.7234 8.375C11.7256 8.375 11.7278 8.375 11.73 8.375C11.7321 8.375 11.7343 8.375 11.7365 8.375C11.7387 8.375 11.7409 8.375 11.7431 8.375C11.7452 8.375 11.7474 8.375 11.7496 8.375C11.7518 8.375 11.754 8.375 11.7562 8.375C11.7584 8.375 11.7605 8.375 11.7627 8.375C11.7649 8.375 11.7671 8.375 11.7693 8.375C11.7715 8.375 11.7737 8.375 11.7758 8.375C11.778 8.375 11.7802 8.375 11.7824 8.375C11.7846 8.375 11.7868 8.375 11.789 8.375C11.7912 8.375 11.7933 8.375 11.7955 8.375C11.7977 8.375 11.7999 8.375 11.8021 8.375C11.8043 8.375 11.8065 8.375 11.8087 8.375C11.8108 8.375 11.813 8.375 11.8152 8.375C11.8174 8.375 11.8196 8.375 11.8218 8.375C11.824 8.375 11.8262 8.375 11.8284 8.375C11.8305 8.375 11.8327 8.375 11.8349 8.375C11.8371 8.375 11.8393 8.375 11.8415 8.375C11.8437 8.375 11.8459 8.375 11.8481 8.375C11.8502 8.375 11.8524 8.375 11.8546 8.375C11.8568 8.375 11.859 8.375 11.8612 8.375C11.8634 8.375 11.8656 8.375 11.8678 8.375C11.87 8.375 11.8721 8.375 11.8743 8.375C11.8765 8.375 11.8787 8.375 11.8809 8.375C11.8831 8.375 11.8853 8.375 11.8875 8.375C11.8897 8.375 11.8919 8.375 11.8941 8.375C11.8962 8.375 11.8984 8.375 11.9006 8.375C11.9028 8.375 11.905 8.375 11.9072 8.375C11.9094 8.375 11.9116 8.375 11.9138 8.375C11.916 8.375 11.9182 8.375 11.9204 8.375C11.9226 8.375 11.9247 8.375 11.9269 8.375C11.9291 8.375 11.9313 8.375 11.9335 8.375C11.9357 8.375 11.9379 8.375 11.9401 8.375C11.9423 8.375 11.9445 8.375 11.9467 8.375C11.9489 8.375 11.9511 8.375 11.9533 8.375C11.9554 8.375 11.9576 8.375 11.9598 8.375C11.962 8.375 11.9642 8.375 11.9664 8.375C11.9686 8.375 11.9708 8.375 11.973 8.375C11.9752 8.375 11.9774 8.375 11.9796 8.375C11.9818 8.375 11.984 8.375 11.9862 8.375C11.9883 8.375 11.9905 8.375 11.9927 8.375C11.9949 8.375 11.9971 8.375 11.9993 8.375C12.0015 8.375 12.0037 8.375 12.0059 8.375C12.0081 8.375 12.0103 8.375 12.0125 8.375C12.0147 8.375 12.0169 8.375 12.0191 8.375C12.0213 8.375 12.0235 8.375 12.0257 8.375C12.0279 8.375 12.03 8.375 12.0322 8.375C12.0344 8.375 12.0366 8.375 12.0388 8.375C12.041 8.375 12.0432 8.375 12.0454 8.375C12.0476 8.375 12.0498 8.375 12.052 8.375C12.0542 8.375 12.0564 8.375 12.0586 8.375C12.0608 8.375 12.063 8.375 12.0652 8.375C12.0674 8.375 12.0696 8.375 12.0718 8.375C12.074 8.375 12.0762 8.375 12.0784 8.375C12.0805 8.375 12.0827 8.375 12.0849 8.375C12.0871 8.375 12.0893 8.375 12.0915 8.375C12.0937 8.375 12.0959 8.375 12.0981 8.375C12.1003 8.375 12.1025 8.375 12.1047 8.375C12.1069 8.375 12.1091 8.375 12.1113 8.375C12.1135 8.375 12.1157 8.375 12.1179 8.375C12.1201 8.375 12.1223 8.375 12.1245 8.375C12.1267 8.375 12.1289 8.375 12.1311 8.375C12.1333 8.375 12.1355 8.375 12.1377 8.375C12.1399 8.375 12.1421 8.375 12.1442 8.375C12.1464 8.375 12.1486 8.375 12.1508 8.375C12.153 8.375 12.1552 8.375 12.1574 8.375C12.1596 8.375 12.1618 8.375 12.164 8.375C12.1662 8.375 12.1684 8.375 12.1706 8.375C12.1728 8.375 12.175 8.375 12.1772 8.375C12.1794 8.375 12.1816 8.375 12.1838 8.375C12.186 8.375 12.1882 8.375 12.1904 8.375C12.1926 8.375 12.1948 8.375 12.197 8.375C12.1992 8.375 12.2014 8.375 12.2036 8.375C12.2058 8.375 12.208 8.375 12.2102 8.375C12.2124 8.375 12.2146 8.375 12.2168 8.375C12.219 8.375 12.2212 8.375 12.2233 8.375C12.2255 8.375 12.2277 8.375 12.2299 8.375C12.2321 8.375 12.2343 8.375 12.2365 8.375C12.2387 8.375 12.2409 8.375 12.2431 8.375C12.2453 8.375 12.2475 8.375 12.2497 8.375C12.2519 8.375 12.2541 8.375 12.2563 8.375C12.2585 8.375 12.2607 8.375 12.2629 8.375C12.2651 8.375 12.2673 8.375 12.2695 8.375C12.2717 8.375 12.2739 8.375 12.2761 8.375C12.2783 8.375 12.2805 8.375 12.2827 8.375C12.2849 8.375 12.2871 8.375 12.2893 8.375C12.2915 8.375 12.2937 8.375 12.2959 8.375C12.2981 8.375 12.3003 8.375 12.3025 8.375C12.3046 8.375 12.3068 8.375 12.309 8.375C12.3112 8.375 12.3134 8.375 12.3156 8.375C12.3178 8.375 12.32 8.375 12.3222 8.375C12.3244 8.375 12.3266 8.375 12.3288 8.375C12.331 8.375 12.3332 8.375 12.3354 8.375C12.3376 8.375 12.3398 8.375 12.342 8.375C12.3442 8.375 12.3464 8.375 12.3486 8.375C12.3508 8.375 12.353 8.375 12.3552 8.375C12.3574 8.375 12.3596 8.375 12.3618 8.375C12.364 8.375 12.3662 8.375 12.3684 8.375C12.3706 8.375 12.3728 8.375 12.3749 8.375C12.3771 8.375 12.3793 8.375 12.3815 8.375C12.3837 8.375 12.3859 8.375 12.3881 8.375C12.3903 8.375 12.3925 8.375 12.3947 8.375C12.3969 8.375 12.3991 8.375 12.4013 8.375C12.4035 8.375 12.4057 8.375 12.4079 8.375C12.4101 8.375 12.4123 8.375 12.4145 8.375C12.4167 8.375 12.4189 8.375 12.4211 8.375C12.4233 8.375 12.4255 8.375 12.4277 8.375C12.4299 8.375 12.432 8.375 12.4342 8.375C12.4364 8.375 12.4386 8.375 12.4408 8.375C12.443 8.375 12.4452 8.375 12.4474 8.375C12.4496 8.375 12.4518 8.375 12.454 8.375C12.4562 8.375 12.4584 8.375 12.4606 8.375C12.4628 8.375 12.465 8.375 12.4672 8.375C12.4694 8.375 12.4716 8.375 12.4738 8.375C12.4759 8.375 12.4781 8.375 12.4803 8.375C12.4825 8.375 12.4847 8.375 12.4869 8.375C12.4891 8.375 12.4913 8.375 12.4935 8.375C12.4957 8.375 12.4979 8.375 12.5001 8.375C12.5023 8.375 12.5045 8.375 12.5067 8.375C12.5089 8.375 12.5111 8.375 12.5132 8.375C12.5154 8.375 12.5176 8.375 12.5198 8.375C12.522 8.375 12.5242 8.375 12.5264 8.375C12.5286 8.375 12.5308 8.375 12.533 8.375C12.5352 8.375 12.5374 8.375 12.5396 8.375C12.5418 8.375 12.544 8.375 12.5461 8.375C12.5483 8.375 12.5505 8.375 12.5527 8.375C12.5549 8.375 12.5571 8.375 12.5593 8.375C12.5615 8.375 12.5637 8.375 12.5659 8.375C12.5681 8.375 12.5703 8.375 12.5725 8.375C12.5746 8.375 12.5768 8.375 12.579 8.375C12.5812 8.375 12.5834 8.375 12.5856 8.375C12.5878 8.375 12.59 8.375 12.5922 8.375C12.5944 8.375 12.5966 8.375 12.5987 8.375C12.6009 8.375 12.6031 8.375 12.6053 8.375C12.6075 8.375 12.6097 8.375 12.6119 8.375C12.6141 8.375 12.6163 8.375 12.6185 8.375C12.6207 8.375 12.6228 8.375 12.625 8.375V7.625C12.6228 7.625 12.6207 7.625 12.6185 7.625C12.6163 7.625 12.6141 7.625 12.6119 7.625C12.6097 7.625 12.6075 7.625 12.6053 7.625C12.6031 7.625 12.6009 7.625 12.5987 7.625C12.5966 7.625 12.5944 7.625 12.5922 7.625C12.59 7.625 12.5878 7.625 12.5856 7.625C12.5834 7.625 12.5812 7.625 12.579 7.625C12.5768 7.625 12.5746 7.625 12.5725 7.625C12.5703 7.625 12.5681 7.625 12.5659 7.625C12.5637 7.625 12.5615 7.625 12.5593 7.625C12.5571 7.625 12.5549 7.625 12.5527 7.625C12.5505 7.625 12.5483 7.625 12.5461 7.625C12.544 7.625 12.5418 7.625 12.5396 7.625C12.5374 7.625 12.5352 7.625 12.533 7.625C12.5308 7.625 12.5286 7.625 12.5264 7.625C12.5242 7.625 12.522 7.625 12.5198 7.625C12.5176 7.625 12.5154 7.625 12.5132 7.625C12.5111 7.625 12.5089 7.625 12.5067 7.625C12.5045 7.625 12.5023 7.625 12.5001 7.625C12.4979 7.625 12.4957 7.625 12.4935 7.625C12.4913 7.625 12.4891 7.625 12.4869 7.625C12.4847 7.625 12.4825 7.625 12.4803 7.625C12.4781 7.625 12.4759 7.625 12.4738 7.625C12.4716 7.625 12.4694 7.625 12.4672 7.625C12.465 7.625 12.4628 7.625 12.4606 7.625C12.4584 7.625 12.4562 7.625 12.454 7.625C12.4518 7.625 12.4496 7.625 12.4474 7.625C12.4452 7.625 12.443 7.625 12.4408 7.625C12.4386 7.625 12.4364 7.625 12.4342 7.625C12.432 7.625 12.4299 7.625 12.4277 7.625C12.4255 7.625 12.4233 7.625 12.4211 7.625C12.4189 7.625 12.4167 7.625 12.4145 7.625C12.4123 7.625 12.4101 7.625 12.4079 7.625C12.4057 7.625 12.4035 7.625 12.4013 7.625C12.3991 7.625 12.3969 7.625 12.3947 7.625C12.3925 7.625 12.3903 7.625 12.3881 7.625C12.3859 7.625 12.3837 7.625 12.3815 7.625C12.3793 7.625 12.3771 7.625 12.3749 7.625C12.3728 7.625 12.3706 7.625 12.3684 7.625C12.3662 7.625 12.364 7.625 12.3618 7.625C12.3596 7.625 12.3574 7.625 12.3552 7.625C12.353 7.625 12.3508 7.625 12.3486 7.625C12.3464 7.625 12.3442 7.625 12.342 7.625C12.3398 7.625 12.3376 7.625 12.3354 7.625C12.3332 7.625 12.331 7.625 12.3288 7.625C12.3266 7.625 12.3244 7.625 12.3222 7.625C12.32 7.625 12.3178 7.625 12.3156 7.625C12.3134 7.625 12.3112 7.625 12.309 7.625C12.3068 7.625 12.3046 7.625 12.3025 7.625C12.3003 7.625 12.2981 7.625 12.2959 7.625C12.2937 7.625 12.2915 7.625 12.2893 7.625C12.2871 7.625 12.2849 7.625 12.2827 7.625C12.2805 7.625 12.2783 7.625 12.2761 7.625C12.2739 7.625 12.2717 7.625 12.2695 7.625C12.2673 7.625 12.2651 7.625 12.2629 7.625C12.2607 7.625 12.2585 7.625 12.2563 7.625C12.2541 7.625 12.2519 7.625 12.2497 7.625C12.2475 7.625 12.2453 7.625 12.2431 7.625C12.2409 7.625 12.2387 7.625 12.2365 7.625C12.2343 7.625 12.2321 7.625 12.2299 7.625C12.2277 7.625 12.2255 7.625 12.2233 7.625C12.2212 7.625 12.219 7.625 12.2168 7.625C12.2146 7.625 12.2124 7.625 12.2102 7.625C12.208 7.625 12.2058 7.625 12.2036 7.625C12.2014 7.625 12.1992 7.625 12.197 7.625C12.1948 7.625 12.1926 7.625 12.1904 7.625C12.1882 7.625 12.186 7.625 12.1838 7.625C12.1816 7.625 12.1794 7.625 12.1772 7.625C12.175 7.625 12.1728 7.625 12.1706 7.625C12.1684 7.625 12.1662 7.625 12.164 7.625C12.1618 7.625 12.1596 7.625 12.1574 7.625C12.1552 7.625 12.153 7.625 12.1508 7.625C12.1486 7.625 12.1464 7.625 12.1442 7.625C12.1421 7.625 12.1399 7.625 12.1377 7.625C12.1355 7.625 12.1333 7.625 12.1311 7.625C12.1289 7.625 12.1267 7.625 12.1245 7.625C12.1223 7.625 12.1201 7.625 12.1179 7.625C12.1157 7.625 12.1135 7.625 12.1113 7.625C12.1091 7.625 12.1069 7.625 12.1047 7.625C12.1025 7.625 12.1003 7.625 12.0981 7.625C12.0959 7.625 12.0937 7.625 12.0915 7.625C12.0893 7.625 12.0871 7.625 12.0849 7.625C12.0827 7.625 12.0805 7.625 12.0784 7.625C12.0762 7.625 12.074 7.625 12.0718 7.625C12.0696 7.625 12.0674 7.625 12.0652 7.625C12.063 7.625 12.0608 7.625 12.0586 7.625C12.0564 7.625 12.0542 7.625 12.052 7.625C12.0498 7.625 12.0476 7.625 12.0454 7.625C12.0432 7.625 12.041 7.625 12.0388 7.625C12.0366 7.625 12.0344 7.625 12.0322 7.625C12.03 7.625 12.0279 7.625 12.0257 7.625C12.0235 7.625 12.0213 7.625 12.0191 7.625C12.0169 7.625 12.0147 7.625 12.0125 7.625C12.0103 7.625 12.0081 7.625 12.0059 7.625C12.0037 7.625 12.0015 7.625 11.9993 7.625C11.9971 7.625 11.9949 7.625 11.9927 7.625C11.9905 7.625 11.9883 7.625 11.9862 7.625C11.984 7.625 11.9818 7.625 11.9796 7.625C11.9774 7.625 11.9752 7.625 11.973 7.625C11.9708 7.625 11.9686 7.625 11.9664 7.625C11.9642 7.625 11.962 7.625 11.9598 7.625C11.9576 7.625 11.9554 7.625 11.9533 7.625C11.9511 7.625 11.9489 7.625 11.9467 7.625C11.9445 7.625 11.9423 7.625 11.9401 7.625C11.9379 7.625 11.9357 7.625 11.9335 7.625C11.9313 7.625 11.9291 7.625 11.9269 7.625C11.9247 7.625 11.9226 7.625 11.9204 7.625C11.9182 7.625 11.916 7.625 11.9138 7.625C11.9116 7.625 11.9094 7.625 11.9072 7.625C11.905 7.625 11.9028 7.625 11.9006 7.625C11.8984 7.625 11.8962 7.625 11.8941 7.625C11.8919 7.625 11.8897 7.625 11.8875 7.625C11.8853 7.625 11.8831 7.625 11.8809 7.625C11.8787 7.625 11.8765 7.625 11.8743 7.625C11.8721 7.625 11.87 7.625 11.8678 7.625C11.8656 7.625 11.8634 7.625 11.8612 7.625C11.859 7.625 11.8568 7.625 11.8546 7.625C11.8524 7.625 11.8502 7.625 11.8481 7.625C11.8459 7.625 11.8437 7.625 11.8415 7.625C11.8393 7.625 11.8371 7.625 11.8349 7.625C11.8327 7.625 11.8305 7.625 11.8284 7.625C11.8262 7.625 11.824 7.625 11.8218 7.625C11.8196 7.625 11.8174 7.625 11.8152 7.625C11.813 7.625 11.8108 7.625 11.8087 7.625C11.8065 7.625 11.8043 7.625 11.8021 7.625C11.7999 7.625 11.7977 7.625 11.7955 7.625C11.7933 7.625 11.7912 7.625 11.789 7.625C11.7868 7.625 11.7846 7.625 11.7824 7.625C11.7802 7.625 11.778 7.625 11.7758 7.625C11.7737 7.625 11.7715 7.625 11.7693 7.625C11.7671 7.625 11.7649 7.625 11.7627 7.625C11.7605 7.625 11.7584 7.625 11.7562 7.625C11.754 7.625 11.7518 7.625 11.7496 7.625C11.7474 7.625 11.7452 7.625 11.7431 7.625C11.7409 7.625 11.7387 7.625 11.7365 7.625C11.7343 7.625 11.7321 7.625 11.73 7.625C11.7278 7.625 11.7256 7.625 11.7234 7.625C11.7212 7.625 11.719 7.625 11.7169 7.625C11.7147 7.625 11.7125 7.625 11.7103 7.625C11.7081 7.625 11.7059 7.625 11.7038 7.625C11.7016 7.625 11.6994 7.625 11.6972 7.625C11.695 7.625 11.6928 7.625 11.6907 7.625C11.6885 7.625 11.6863 7.625 11.6841 7.625C11.6819 7.625 11.6798 7.625 11.6776 7.625C11.6754 7.625 11.6732 7.625 11.671 7.625C11.6688 7.625 11.6667 7.625 11.6645 7.625C11.6623 7.625 11.6601 7.625 11.6579 7.625C11.6558 7.625 11.6536 7.625 11.6514 7.625C11.6492 7.625 11.647 7.625 11.6449 7.625C11.6427 7.625 11.6405 7.625 11.6383 7.625C11.6361 7.625 11.634 7.625 11.6318 7.625C11.6296 7.625 11.6274 7.625 11.6253 7.625C11.6231 7.625 11.6209 7.625 11.6187 7.625C11.6165 7.625 11.6144 7.625 11.6122 7.625C11.61 7.625 11.6078 7.625 11.6057 7.625C11.6035 7.625 11.6013 7.625 11.5991 7.625C11.5969 7.625 11.5948 7.625 11.5926 7.625C11.5904 7.625 11.5882 7.625 11.5861 7.625C11.5839 7.625 11.5817 7.625 11.5795 7.625C11.5774 7.625 11.5752 7.625 11.573 7.625C11.5708 7.625 11.5687 7.625 11.5665 7.625C11.5643 7.625 11.5621 7.625 11.56 7.625C11.5578 7.625 11.5556 7.625 11.5534 7.625C11.5513 7.625 11.5491 7.625 11.5469 7.625C11.5448 7.625 11.5426 7.625 11.5404 7.625C11.5382 7.625 11.5361 7.625 11.5339 7.625C11.5317 7.625 11.5296 7.625 11.5274 7.625C11.5252 7.625 11.523 7.625 11.5209 7.625C11.5187 7.625 11.5165 7.625 11.5144 7.625C11.5122 7.625 11.51 7.625 11.5078 7.625C11.5057 7.625 11.5035 7.625 11.5013 7.625C11.4992 7.625 11.497 7.625 11.4948 7.625C11.4927 7.625 11.4905 7.625 11.4883 7.625C11.4861 7.625 11.484 7.625 11.4818 7.625C11.4796 7.625 11.4775 7.625 11.4753 7.625C11.4731 7.625 11.471 7.625 11.4688 7.625C11.4666 7.625 11.4645 7.625 11.4623 7.625C11.4601 7.625 11.458 7.625 11.4558 7.625C11.4536 7.625 11.4515 7.625 11.4493 7.625C11.4471 7.625 11.445 7.625 11.4428 7.625C11.4406 7.625 11.4385 7.625 11.4363 7.625C11.4342 7.625 11.432 7.625 11.4298 7.625C11.4277 7.625 11.4255 7.625 11.4233 7.625C11.4212 7.625 11.419 7.625 11.4168 7.625C11.4147 7.625 11.4125 7.625 11.4104 7.625C11.4082 7.625 11.406 7.625 11.4039 7.625C11.4017 7.625 11.3995 7.625 11.3974 7.625C11.3952 7.625 11.3931 7.625 11.3909 7.625C11.3887 7.625 11.3866 7.625 11.3844 7.625C11.3823 7.625 11.3801 7.625 11.3779 7.625C11.3758 7.625 11.3736 7.625 11.3715 7.625C11.3693 7.625 11.3671 7.625 11.365 7.625C11.3628 7.625 11.3607 7.625 11.3585 7.625C11.3564 7.625 11.3542 7.625 11.352 7.625C11.3499 7.625 11.3477 7.625 11.3456 7.625C11.3434 7.625 11.3413 7.625 11.3391 7.625C11.3369 7.625 11.3348 7.625 11.3326 7.625C11.3305 7.625 11.3283 7.625 11.3262 7.625C11.324 7.625 11.3219 7.625 11.3197 7.625C11.3176 7.625 11.3154 7.625 11.3132 7.625C11.3111 7.625 11.3089 7.625 11.3068 7.625C11.3046 7.625 11.3025 7.625 11.3003 7.625C11.2982 7.625 11.296 7.625 11.2939 7.625C11.2917 7.625 11.2896 7.625 11.2874 7.625C11.2853 7.625 11.2831 7.625 11.281 7.625C11.2788 7.625 11.2767 7.625 11.2745 7.625C11.2724 7.625 11.2702 7.625 11.2681 7.625C11.2659 7.625 11.2638 7.625 11.2616 7.625C11.2595 7.625 11.2573 7.625 11.2552 7.625C11.253 7.625 11.2509 7.625 11.2487 7.625C11.2466 7.625 11.2444 7.625 11.2423 7.625C11.2401 7.625 11.238 7.625 11.2359 7.625C11.2337 7.625 11.2316 7.625 11.2294 7.625C11.2273 7.625 11.2251 7.625 11.223 7.625C11.2208 7.625 11.2187 7.625 11.2166 7.625C11.2144 7.625 11.2123 7.625 11.2101 7.625C11.208 7.625 11.2058 7.625 11.2037 7.625C11.2016 7.625 11.1994 7.625 11.1973 7.625C11.1951 7.625 11.193 7.625 11.1908 7.625C11.1887 7.625 11.1866 7.625 11.1844 7.625C11.1823 7.625 11.1801 7.625 11.178 7.625C11.1759 7.625 11.1737 7.625 11.1716 7.625C11.1694 7.625 11.1673 7.625 11.1652 7.625C11.163 7.625 11.1609 7.625 11.1588 7.625C11.1566 7.625 11.1545 7.625 11.1523 7.625C11.1502 7.625 11.1481 7.625 11.1459 7.625C11.1438 7.625 11.1417 7.625 11.1395 7.625C11.1374 7.625 11.1353 7.625 11.1331 7.625C11.131 7.625 11.1289 7.625 11.1267 7.625C11.1246 7.625 11.1225 7.625 11.1203 7.625C11.1182 7.625 11.1161 7.625 11.1139 7.625C11.1118 7.625 11.1097 7.625 11.1075 7.625C11.1054 7.625 11.1033 7.625 11.1011 7.625C11.099 7.625 11.0969 7.625 11.0947 7.625C11.0926 7.625 11.0905 7.625 11.0884 7.625C11.0862 7.625 11.0841 7.625 11.082 7.625C11.0798 7.625 11.0777 7.625 11.0756 7.625C11.0735 7.625 11.0713 7.625 11.0692 7.625C11.0671 7.625 11.065 7.625 11.0628 7.625C11.0607 7.625 11.0586 7.625 11.0565 7.625C11.0543 7.625 11.0522 7.625 11.0501 7.625C11.048 7.625 11.0458 7.625 11.0437 7.625C11.0416 7.625 11.0395 7.625 11.0373 7.625C11.0352 7.625 11.0331 7.625 11.031 7.625C11.0288 7.625 11.0267 7.625 11.0246 7.625C11.0225 7.625 11.0204 7.625 11.0182 7.625C11.0161 7.625 11.014 7.625 11.0119 7.625C11.0098 7.625 11.0076 7.625 11.0055 7.625C11.0034 7.625 11.0013 7.625 10.9992 7.625C10.997 7.625 10.9949 7.625 10.9928 7.625C10.9907 7.625 10.9886 7.625 10.9865 7.625C10.9843 7.625 10.9822 7.625 10.9801 7.625C10.978 7.625 10.9759 7.625 10.9738 7.625C10.9717 7.625 10.9695 7.625 10.9674 7.625C10.9653 7.625 10.9632 7.625 10.9611 7.625C10.959 7.625 10.9569 7.625 10.9548 7.625C10.9526 7.625 10.9505 7.625 10.9484 7.625C10.9463 7.625 10.9442 7.625 10.9421 7.625C10.94 7.625 10.9379 7.625 10.9358 7.625C10.9336 7.625 10.9315 7.625 10.9294 7.625C10.9273 7.625 10.9252 7.625 10.9231 7.625C10.921 7.625 10.9189 7.625 10.9168 7.625C10.9147 7.625 10.9126 7.625 10.9105 7.625C10.9084 7.625 10.9063 7.625 10.9042 7.625C10.902 7.625 10.8999 7.625 10.8978 7.625C10.8957 7.625 10.8936 7.625 10.8915 7.625C10.8894 7.625 10.8873 7.625 10.8852 7.625C10.8831 7.625 10.881 7.625 10.8789 7.625C10.8768 7.625 10.8747 7.625 10.8726 7.625C10.8705 7.625 10.8684 7.625 10.8663 7.625C10.8642 7.625 10.8621 7.625 10.86 7.625C10.8579 7.625 10.8558 7.625 10.8537 7.625C10.8516 7.625 10.8495 7.625 10.8474 7.625C10.8453 7.625 10.8432 7.625 10.8411 7.625C10.839 7.625 10.837 7.625 10.8349 7.625C10.8328 7.625 10.8307 7.625 10.8286 7.625C10.8265 7.625 10.8244 7.625 10.8223 7.625C10.8202 7.625 10.8181 7.625 10.816 7.625C10.8139 7.625 10.8118 7.625 10.8097 7.625C10.8077 7.625 10.8056 7.625 10.8035 7.625C10.8014 7.625 10.7993 7.625 10.7972 7.625C10.7951 7.625 10.793 7.625 10.7909 7.625C10.7888 7.625 10.7868 7.625 10.7847 7.625C10.7826 7.625 10.7805 7.625 10.7784 7.625C10.7763 7.625 10.7742 7.625 10.7722 7.625C10.7701 7.625 10.768 7.625 10.7659 7.625C10.7638 7.625 10.7617 7.625 10.7597 7.625C10.7576 7.625 10.7555 7.625 10.7534 7.625C10.7513 7.625 10.7492 7.625 10.7472 7.625C10.7451 7.625 10.743 7.625 10.7409 7.625C10.7388 7.625 10.7368 7.625 10.7347 7.625C10.7326 7.625 10.7305 7.625 10.7284 7.625C10.7264 7.625 10.7243 7.625 10.7222 7.625C10.7201 7.625 10.7181 7.625 10.716 7.625C10.7139 7.625 10.7118 7.625 10.7098 7.625C10.7077 7.625 10.7056 7.625 10.7035 7.625C10.7015 7.625 10.6994 7.625 10.6973 7.625C10.6952 7.625 10.6932 7.625 10.6911 7.625C10.689 7.625 10.687 7.625 10.6849 7.625C10.6828 7.625 10.6807 7.625 10.6787 7.625C10.6766 7.625 10.6745 7.625 10.6725 7.625C10.6704 7.625 10.6683 7.625 10.6663 7.625C10.6642 7.625 10.6621 7.625 10.6601 7.625C10.658 7.625 10.6559 7.625 10.6539 7.625C10.6518 7.625 10.6497 7.625 10.6477 7.625C10.6456 7.625 10.6435 7.625 10.6415 7.625C10.6394 7.625 10.6374 7.625 10.6353 7.625C10.6332 7.625 10.6312 7.625 10.6291 7.625C10.627 7.625 10.625 7.625 10.6229 7.625C10.6209 7.625 10.6188 7.625 10.6167 7.625C10.6147 7.625 10.6126 7.625 10.6106 7.625C10.6085 7.625 10.6065 7.625 10.6044 7.625C10.6023 7.625 10.6003 7.625 10.5982 7.625C10.5962 7.625 10.5941 7.625 10.5921 7.625C10.59 7.625 10.588 7.625 10.5859 7.625C10.5839 7.625 10.5818 7.625 10.5797 7.625C10.5777 7.625 10.5756 7.625 10.5736 7.625C10.5715 7.625 10.5695 7.625 10.5674 7.625C10.5654 7.625 10.5633 7.625 10.5613 7.625C10.5592 7.625 10.5572 7.625 10.5551 7.625C10.5531 7.625 10.5511 7.625 10.549 7.625C10.547 7.625 10.5449 7.625 10.5429 7.625C10.5408 7.625 10.5388 7.625 10.5367 7.625C10.5347 7.625 10.5326 7.625 10.5306 7.625C10.5286 7.625 10.5265 7.625 10.5245 7.625C10.5224 7.625 10.5204 7.625 10.5184 7.625C10.5163 7.625 10.5143 7.625 10.5122 7.625C10.5102 7.625 10.5082 7.625 10.5061 7.625C10.5041 7.625 10.502 7.625 10.5 7.625C10.498 7.625 10.4959 7.625 10.4939 7.625C10.4919 7.625 10.4898 7.625 10.4878 7.625C10.4858 7.625 10.4837 7.625 10.4817 7.625C10.4797 7.625 10.4776 7.625 10.4756 7.625C10.4736 7.625 10.4715 7.625 10.4695 7.625C10.4675 7.625 10.4654 7.625 10.4634 7.625C10.4614 7.625 10.4593 7.625 10.4573 7.625C10.4553 7.625 10.4533 7.625 10.4512 7.625C10.4492 7.625 10.4472 7.625 10.4451 7.625C10.4431 7.625 10.4411 7.625 10.4391 7.625C10.437 7.625 10.435 7.625 10.433 7.625C10.431 7.625 10.4289 7.625 10.4269 7.625C10.4249 7.625 10.4229 7.625 10.4209 7.625C10.4188 7.625 10.4168 7.625 10.4148 7.625C10.4128 7.625 10.4108 7.625 10.4087 7.625C10.4067 7.625 10.4047 7.625 10.4027 7.625C10.4007 7.625 10.3986 7.625 10.3966 7.625C10.3946 7.625 10.3926 7.625 10.3906 7.625C10.3886 7.625 10.3866 7.625 10.3845 7.625C10.3825 7.625 10.3805 7.625 10.3785 7.625C10.3765 7.625 10.3745 7.625 10.3725 7.625C10.3705 7.625 10.3684 7.625 10.3664 7.625C10.3644 7.625 10.3624 7.625 10.3604 7.625C10.3584 7.625 10.3564 7.625 10.3544 7.625C10.3524 7.625 10.3504 7.625 10.3484 7.625C10.3464 7.625 10.3444 7.625 10.3423 7.625C10.3403 7.625 10.3383 7.625 10.3363 7.625C10.3343 7.625 10.3323 7.625 10.3303 7.625C10.3283 7.625 10.3263 7.625 10.3243 7.625C10.3223 7.625 10.3203 7.625 10.3183 7.625C10.3163 7.625 10.3143 7.625 10.3123 7.625C10.3103 7.625 10.3083 7.625 10.3063 7.625C10.3043 7.625 10.3023 7.625 10.3003 7.625C10.2983 7.625 10.2964 7.625 10.2944 7.625C10.2924 7.625 10.2904 7.625 10.2884 7.625C10.2864 7.625 10.2844 7.625 10.2824 7.625C10.2804 7.625 10.2784 7.625 10.2764 7.625C10.2744 7.625 10.2724 7.625 10.2705 7.625C10.2685 7.625 10.2665 7.625 10.2645 7.625C10.2625 7.625 10.2605 7.625 10.2585 7.625C10.2565 7.625 10.2546 7.625 10.2526 7.625C10.2506 7.625 10.2486 7.625 10.2466 7.625C10.2446 7.625 10.2427 7.625 10.2407 7.625C10.2387 7.625 10.2367 7.625 10.2347 7.625C10.2327 7.625 10.2308 7.625 10.2288 7.625C10.2268 7.625 10.2248 7.625 10.2229 7.625C10.2209 7.625 10.2189 7.625 10.2169 7.625C10.2149 7.625 10.213 7.625 10.211 7.625C10.209 7.625 10.207 7.625 10.2051 7.625C10.2031 7.625 10.2011 7.625 10.1991 7.625C10.1972 7.625 10.1952 7.625 10.1932 7.625C10.1913 7.625 10.1893 7.625 10.1873 7.625C10.1854 7.625 10.1834 7.625 10.1814 7.625C10.1794 7.625 10.1775 7.625 10.1755 7.625C10.1735 7.625 10.1716 7.625 10.1696 7.625C10.1677 7.625 10.1657 7.625 10.1637 7.625C10.1618 7.625 10.1598 7.625 10.1578 7.625C10.1559 7.625 10.1539 7.625 10.1519 7.625C10.15 7.625 10.148 7.625 10.1461 7.625C10.1441 7.625 10.1421 7.625 10.1402 7.625C10.1382 7.625 10.1363 7.625 10.1343 7.625C10.1324 7.625 10.1304 7.625 10.1284 7.625C10.1265 7.625 10.1245 7.625 10.1226 7.625C10.1206 7.625 10.1187 7.625 10.1167 7.625C10.1148 7.625 10.1128 7.625 10.1109 7.625C10.1089 7.625 10.107 7.625 10.105 7.625C10.1031 7.625 10.1011 7.625 10.0992 7.625C10.0972 7.625 10.0953 7.625 10.0933 7.625C10.0914 7.625 10.0894 7.625 10.0875 7.625C10.0856 7.625 10.0836 7.625 10.0817 7.625C10.0797 7.625 10.0778 7.625 10.0758 7.625C10.0739 7.625 10.072 7.625 10.07 7.625C10.0681 7.625 10.0661 7.625 10.0642 7.625C10.0623 7.625 10.0603 7.625 10.0584 7.625C10.0564 7.625 10.0545 7.625 10.0526 7.625C10.0506 7.625 10.0487 7.625 10.0468 7.625C10.0448 7.625 10.0429 7.625 10.041 7.625C10.039 7.625 10.0371 7.625 10.0352 7.625C10.0332 7.625 10.0313 7.625 10.0294 7.625C10.0274 7.625 10.0255 7.625 10.0236 7.625C10.0217 7.625 10.0197 7.625 10.0178 7.625C10.0159 7.625 10.0139 7.625 10.012 7.625C10.0101 7.625 10.0082 7.625 10.0063 7.625C10.0043 7.625 10.0024 7.625 10.0005 7.625C9.99856 7.625 9.99664 7.625 9.99472 7.625C9.9928 7.625 9.99088 7.625 9.98896 7.625C9.98704 7.625 9.98512 7.625 9.9832 7.625C9.98129 7.625 9.97937 7.625 9.97745 7.625C9.97554 7.625 9.97362 7.625 9.97171 7.625C9.96979 7.625 9.96788 7.625 9.96597 7.625C9.96405 7.625 9.96214 7.625 9.96023 7.625C9.95832 7.625 9.95641 7.625 9.9545 7.625C9.95259 7.625 9.95068 7.625 9.94877 7.625C9.94687 7.625 9.94496 7.625 9.94305 7.625C9.94115 7.625 9.93924 7.625 9.93733 7.625C9.93543 7.625 9.93353 7.625 9.93162 7.625C9.92972 7.625 9.92782 7.625 9.92592 7.625C9.92401 7.625 9.92211 7.625 9.92021 7.625C9.91831 7.625 9.91641 7.625 9.91452 7.625C9.91262 7.625 9.91072 7.625 9.90882 7.625C9.90693 7.625 9.90503 7.625 9.90313 7.625C9.90124 7.625 9.89935 7.625 9.89745 7.625C9.89556 7.625 9.89367 7.625 9.89177 7.625C9.88988 7.625 9.88799 7.625 9.8861 7.625C9.88421 7.625 9.88232 7.625 9.88043 7.625C9.87854 7.625 9.87666 7.625 9.87477 7.625C9.87288 7.625 9.871 7.625 9.86911 7.625C9.86723 7.625 9.86534 7.625 9.86346 7.625C9.86157 7.625 9.85969 7.625 9.85781 7.625C9.85593 7.625 9.85405 7.625 9.85216 7.625C9.85028 7.625 9.84841 7.625 9.84653 7.625C9.84465 7.625 9.84277 7.625 9.84089 7.625C9.83902 7.625 9.83714 7.625 9.83526 7.625C9.83339 7.625 9.83151 7.625 9.82964 7.625C9.82777 7.625 9.82589 7.625 9.82402 7.625C9.82215 7.625 9.82028 7.625 9.81841 7.625C9.81654 7.625 9.81467 7.625 9.8128 7.625C9.81093 7.625 9.80907 7.625 9.8072 7.625C9.80533 7.625 9.80347 7.625 9.8016 7.625C9.79974 7.625 9.79787 7.625 9.79601 7.625C9.79414 7.625 9.79228 7.625 9.79042 7.625C9.78856 7.625 9.7867 7.625 9.78484 7.625C9.78298 7.625 9.78112 7.625 9.77926 7.625C9.7774 7.625 9.77554 7.625 9.77369 7.625C9.77183 7.625 9.76997 7.625 9.76812 7.625C9.76627 7.625 9.76441 7.625 9.76256 7.625C9.76071 7.625 9.75885 7.625 9.757 7.625C9.75515 7.625 9.7533 7.625 9.75145 7.625C9.7496 7.625 9.74775 7.625 9.7459 7.625C9.74406 7.625 9.74221 7.625 9.74036 7.625C9.73852 7.625 9.73667 7.625 9.73483 7.625C9.73298 7.625 9.73114 7.625 9.7293 7.625C9.72745 7.625 9.72561 7.625 9.72377 7.625C9.72193 7.625 9.72009 7.625 9.71825 7.625C9.71641 7.625 9.71457 7.625 9.71274 7.625C9.7109 7.625 9.70906 7.625 9.70723 7.625C9.70539 7.625 9.70356 7.625 9.70172 7.625C9.69989 7.625 9.69806 7.625 9.69623 7.625C9.69439 7.625 9.69256 7.625 9.69073 7.625C9.6889 7.625 9.68707 7.625 9.68524 7.625C9.68342 7.625 9.68159 7.625 9.67976 7.625C9.67794 7.625 9.67611 7.625 9.67428 7.625C9.67246 7.625 9.67064 7.625 9.66881 7.625C9.66699 7.625 9.66517 7.625 9.66335 7.625C9.66153 7.625 9.65971 7.625 9.65789 7.625C9.65607 7.625 9.65425 7.625 9.65243 7.625C9.65061 7.625 9.6488 7.625 9.64698 7.625C9.64517 7.625 9.64335 7.625 9.64154 7.625C9.63972 7.625 9.63791 7.625 9.6361 7.625C9.63429 7.625 9.63248 7.625 9.63067 7.625C9.62886 7.625 9.62705 7.625 9.62524 7.625C9.62343 7.625 9.62162 7.625 9.61982 7.625C9.61801 7.625 9.6162 7.625 9.6144 7.625C9.61259 7.625 9.61079 7.625 9.60899 7.625C9.60718 7.625 9.60538 7.625 9.60358 7.625C9.60178 7.625 9.59998 7.625 9.59818 7.625C9.59638 7.625 9.59459 7.625 9.59279 7.625C9.59099 7.625 9.58919 7.625 9.5874 7.625C9.5856 7.625 9.58381 7.625 9.58202 7.625C9.58022 7.625 9.57843 7.625 9.57664 7.625C9.57485 7.625 9.57306 7.625 9.57127 7.625C9.56948 7.625 9.56769 7.625 9.5659 7.625C9.56411 7.625 9.56233 7.625 9.56054 7.625C9.55875 7.625 9.55697 7.625 9.55519 7.625C9.5534 7.625 9.55162 7.625 9.54984 7.625C9.54805 7.625 9.54627 7.625 9.54449 7.625C9.54271 7.625 9.54093 7.625 9.53916 7.625C9.53738 7.625 9.5356 7.625 9.53382 7.625C9.53205 7.625 9.53027 7.625 9.5285 7.625C9.52672 7.625 9.52495 7.625 9.52318 7.625C9.52141 7.625 9.51963 7.625 9.51786 7.625C9.51609 7.625 9.51432 7.625 9.51255 7.625C9.51079 7.625 9.50902 7.625 9.50725 7.625C9.50549 7.625 9.50372 7.625 9.50195 7.625C9.50019 7.625 9.49843 7.625 9.49666 7.625C9.4949 7.625 9.49314 7.625 9.49138 7.625C9.48962 7.625 9.48786 7.625 9.4861 7.625C9.48434 7.625 9.48258 7.625 9.48082 7.625C9.47907 7.625 9.47731 7.625 9.47556 7.625C9.4738 7.625 9.47205 7.625 9.4703 7.625C9.46854 7.625 9.46679 7.625 9.46504 7.625C9.46329 7.625 9.46154 7.625 9.45979 7.625C9.45804 7.625 9.45629 7.625 9.45455 7.625V8.375Z" fill="white"/>
</svg>
