<svg width="15" height="14" viewBox="0 0 15 14" fill="none" xmlns="http://www.w3.org/2000/svg">
<path d="M8.49794 1H10.7963L12.0665 6.83669M13.1552 11.252L12.0665 6.83669M12.0665 6.83669L9.70762 11.252H4.80843C4.72778 10.2238 3.97375 8.18548 1.60278 8.25806" stroke="black" stroke-width="0.5" stroke-linecap="round"/>
<path d="M3.37903 11.3427C3.37903 12.2068 2.67857 12.9072 1.81452 12.9072C0.950458 12.9072 0.25 12.2068 0.25 11.3427C0.25 10.4787 0.950458 9.7782 1.81452 9.7782C2.67857 9.7782 3.37903 10.4787 3.37903 11.3427Z" stroke="black" stroke-width="0.5"/>
<path d="M14.75 11.3427C14.75 12.2068 14.0495 12.9072 13.1855 12.9072C12.3214 12.9072 11.621 12.2068 11.621 11.3427C11.621 10.4787 12.3214 9.7782 13.1855 9.7782C14.0495 9.7782 14.75 10.4787 14.75 11.3427Z" stroke="black" stroke-width="0.5"/>
</svg>
